<?xml version="1.0" encoding="utf-8"?>
<!-- Generator: Adobe Illustrator 25.2.3, SVG Export Plug-In . SVG Version: 6.00 Build 0)  -->
<svg version="1.1"
	 id="svg4050" xmlns:cc="http://creativecommons.org/ns#" xmlns:dc="http://purl.org/dc/elements/1.1/" xmlns:inkscape="http://www.inkscape.org/namespaces/inkscape" xmlns:rdf="http://www.w3.org/1999/02/22-rdf-syntax-ns#" xmlns:sodipodi="http://sodipodi.sourceforge.net/DTD/sodipodi-0.dtd" xmlns:svg="http://www.w3.org/2000/svg"
	 xmlns="http://www.w3.org/2000/svg" xmlns:xlink="http://www.w3.org/1999/xlink" x="0px" y="0px" viewBox="0 0 32 32"
	 style="enable-background:new 0 0 32 32;" xml:space="preserve">
<style type="text/css">
	.st0{fill:#020617;}
</style>
<g id="layer1" transform="translate(0,-1020.3622)">
	<path class="st0" d="M31,1032.8C31,1032.8,31,1032.8,31,1032.8C31,1032.8,31,1032.8,31,1032.8c0-0.1,0-0.1,0-0.2l-2-8.4
		c-0.1-0.5-0.3-0.9-0.6-1.3c-0.3-0.4-0.8-0.6-1.4-0.6h-4.4c0,0-0.1,0-0.1,0c0,0,0,0-0.1,0h-5.8c0,0-0.1,0-0.1,0c0,0-0.1,0-0.1,0
		h-5.8c0,0-0.1,0-0.1,0c0,0,0,0-0.1,0H6c-0.6,0-1,0.3-1.4,0.6c-0.3,0.4-0.5,0.8-0.6,1.3l-2,8.4c0,0.1,0,0.1,0,0.2c0,0,0,0,0,0
		c0,1.4,0.8,2.8,2,3.5c0,0,0,0,0,0v13.5c0,0.3,0.2,0.5,0.5,0.5h24c0.3,0,0.5-0.2,0.5-0.5v-13.5c0,0,0,0,0,0
		C30.2,1035.6,31,1034.3,31,1032.8C31,1032.9,31,1032.8,31,1032.8z M17,1023.4h5l0.9,9h-6V1023.4z M22.9,1033.4
		c-0.2,0.9-0.6,1.7-1.4,2.1c-0.9,0.5-2.1,0.5-3,0c-0.8-0.5-1.2-1.3-1.4-2.1H22.9z M11,1023.4h5v9h-6L11,1023.4z M15.9,1033.4
		c-0.2,0.9-0.6,1.7-1.4,2.1c-0.9,0.5-2.1,0.5-3,0c-0.8-0.5-1.2-1.3-1.4-2.1H15.9z M5,1024.5c0.1-0.3,0.2-0.6,0.4-0.8
		c0.2-0.2,0.3-0.3,0.6-0.3h3.9l-0.9,9H3.1L5,1024.5z M3.1,1033.4h5.7c-0.2,0.9-0.6,1.7-1.4,2.1c-0.9,0.5-2.1,0.5-3,0
		C3.7,1035.1,3.3,1034.2,3.1,1033.4z M28,1049.4H5v-12.6c1,0.3,2.1,0.1,3-0.4c0.6-0.4,1.2-0.9,1.5-1.6c0.3,0.6,0.9,1.2,1.5,1.6
		c1.2,0.7,2.8,0.7,4,0c0.6-0.4,1.2-0.9,1.5-1.6c0.3,0.6,0.9,1.2,1.5,1.6c1.2,0.7,2.8,0.7,4,0c0.6-0.4,1.2-0.9,1.5-1.6
		c0.3,0.6,0.9,1.2,1.5,1.6c0.9,0.5,2,0.7,3,0.4V1049.4z M28.5,1035.5c-0.9,0.5-2.1,0.5-3,0c-0.8-0.5-1.2-1.3-1.4-2.1h5.7
		C29.7,1034.2,29.3,1035.1,28.5,1035.5z M24,1032.4l-0.9-9H27c0.3,0,0.4,0.1,0.6,0.3c0.2,0.2,0.3,0.5,0.4,0.8l1.9,7.9H24z"/>
</g>
</svg>
